<svg width="99" height="48" viewBox="0 0 99 48" fill="none" xmlns="http://www.w3.org/2000/svg">
<rect x="0.333008" width="98.3333" height="48" rx="8" fill="#F1F1F1"/>
<path d="M51.8587 28.4195C51.2867 28.4195 50.7718 28.3194 50.2999 28.1621C49.8279 28.0048 49.4132 27.7474 49.0557 27.4327C48.6934 27.1181 48.4312 26.7034 48.2691 26.1885C48.0689 25.6594 47.9688 25.0873 47.9688 24.4151V24.1005C47.9688 23.4855 48.0689 22.9135 48.2691 22.4415C48.4836 21.9696 48.741 21.5549 49.1129 21.2402C49.4704 20.9256 49.8851 20.6682 50.3571 20.5108C50.829 20.3535 51.3439 20.2534 51.8158 20.2534C52.3879 20.2534 52.8455 20.3106 53.2603 20.4679C53.6798 20.6205 54.0469 20.8255 54.3615 21.0829C54.6761 21.3546 54.8763 21.655 55.0337 21.9696C55.1862 22.3319 55.2911 22.699 55.3483 23.0708H53.3175C53.2174 22.699 53.0601 22.3843 52.8026 22.1841C52.5452 21.9696 52.2306 21.8695 51.7586 21.8695C51.5012 21.8695 51.2438 21.9267 51.0293 22.0268C50.829 22.1269 50.6145 22.227 50.4572 22.4415C50.2999 22.6418 50.1426 22.8563 50.0425 23.1137C49.9423 23.3711 49.8851 23.743 49.8851 24.1005V24.4151C49.8851 24.8346 49.9376 25.1969 50.0425 25.502C50.1426 25.8167 50.257 26.0312 50.4572 26.2314C50.6145 26.4459 50.829 26.546 51.0293 26.6462C51.2438 26.7606 51.5012 26.8035 51.7586 26.8035C52.1734 26.8035 52.488 26.7034 52.7454 26.5031C53.0029 26.2886 53.2174 26.0312 53.3175 25.6165H55.4055C55.3483 26.0312 55.2482 26.4459 55.0337 26.8035C54.8334 27.1753 54.5617 27.4899 54.3043 27.6902C53.9897 27.9476 53.6321 28.1049 53.2174 28.2622C52.8026 28.3194 52.3879 28.4195 51.8587 28.4195Z" fill="black"/>
<path d="M59.4534 28.3187C58.9814 28.3187 58.6239 28.2615 58.2664 28.2186C57.9517 28.1042 57.6943 28.004 57.4226 27.7466C57.2224 27.5321 57.065 27.2175 56.9649 26.9171C56.8505 26.5453 56.8076 26.1306 56.8076 25.5585V17.8071H58.7812V25.3583C58.7812 25.6157 58.7812 25.8159 58.8384 25.9732C58.8813 26.1306 58.9385 26.2879 58.9814 26.388C59.0958 26.5024 59.196 26.5453 59.2961 26.6025C59.4534 26.6454 59.6107 26.6454 59.8252 26.6454C59.9301 26.6454 60.0302 26.6454 60.1256 26.6454C60.24 26.6454 60.2829 26.6454 60.3973 26.6454V28.2615C60.3401 28.2615 60.2829 28.2615 60.1828 28.3187C60.1255 28.3187 60.0254 28.3187 59.9253 28.3187C59.8252 28.3187 59.768 28.3187 59.6679 28.3187H59.4534Z" fill="black"/>
<path d="M61.8404 20.353H63.8283V28.2617H61.8404V20.353ZM62.7843 19.4663C62.4125 19.4663 62.1122 19.3662 61.8976 19.166C61.6879 18.9562 61.583 18.694 61.583 18.3794C61.583 18.0648 61.6879 17.8026 61.8976 17.5928C62.1122 17.3926 62.4125 17.2925 62.7843 17.2925C63.1419 17.2925 63.4565 17.3926 63.671 17.5928C63.8808 17.8026 63.9856 18.0648 63.9856 18.3794C63.9856 18.694 63.8808 18.9562 63.671 19.166C63.4565 19.3662 63.1991 19.4663 62.7843 19.4663Z" fill="black"/>
<path d="M69.2344 28.4195C68.6623 28.4195 68.1332 28.3194 67.6755 28.1621C67.2036 28.0048 66.7888 27.7474 66.417 27.4327C66.0547 27.1181 65.7973 26.7034 65.6447 26.1885C65.4302 25.6594 65.3301 25.0873 65.3301 24.4151V24.1005C65.3301 23.4855 65.4302 22.9135 65.6447 22.4415C65.8449 21.9696 66.1167 21.5549 66.4742 21.2402C66.846 20.9256 67.2608 20.6682 67.7184 20.5108C68.1904 20.3535 68.7052 20.2534 69.1772 20.2534C69.7492 20.2534 70.2212 20.3106 70.6359 20.4679C71.0554 20.6205 71.4177 20.8255 71.7228 21.0829C72.0374 21.3546 72.252 21.655 72.4093 21.9696C72.5618 22.3319 72.6619 22.699 72.7096 23.0708H70.6931C70.5787 22.699 70.4214 22.3843 70.164 22.1841C69.9065 21.9696 69.5919 21.8695 69.1343 21.8695C68.8625 21.8695 68.6051 21.9267 68.4049 22.0268C68.1904 22.1269 67.9901 22.227 67.8328 22.4415C67.6755 22.6418 67.5182 22.8563 67.4181 23.1137C67.3037 23.3711 67.2608 23.743 67.2608 24.1005V24.4151C67.2608 24.8346 67.3132 25.1969 67.4181 25.502C67.5182 25.8167 67.6183 26.0312 67.8328 26.2314C67.9901 26.4459 68.1904 26.546 68.4049 26.6462C68.6051 26.7606 68.8625 26.8035 69.1343 26.8035C69.549 26.8035 69.8493 26.7034 70.1211 26.5031C70.3785 26.2886 70.5787 26.0312 70.6931 25.6165H72.7096C72.6667 26.0312 72.5666 26.4459 72.3521 26.8035C72.1376 27.1753 71.8801 27.4899 71.6227 27.6902C71.3081 27.9476 70.9505 28.1049 70.5358 28.2622C70.164 28.3194 69.7492 28.4195 69.2344 28.4195Z" fill="black"/>
<path d="M74.127 28.2186V17.8071H76.1005V23.5849L79.0037 20.3528H81.2491L78.3316 23.6421L81.5637 28.2186H79.2755L76.9872 24.9864L76.1005 25.9732V28.2186H74.127Z" fill="black"/>
<path fill-rule="evenodd" clip-rule="evenodd" d="M30.4355 11C33.2386 11 36.056 12.4587 39.0164 15.4191C44.9515 21.3542 44.8943 26.703 39.0164 32.5809C36.056 35.4983 33.2386 37 30.4355 37C27.6325 37 24.8151 35.5413 21.8547 32.5809C18.8943 29.6205 17.4355 26.8031 17.4355 24C17.4355 21.1397 18.9372 18.3366 21.8547 15.4191C24.7722 12.4587 27.6325 11 30.4355 11ZM30.4355 31.0792C31.9944 31.0792 33.5104 30.2926 35.1121 28.6766C38.3442 25.5016 38.3442 22.5413 35.1121 19.3234C31.8943 16.0913 28.9768 16.0913 25.759 19.3234C22.5269 22.4983 22.5269 25.4587 25.759 28.6766C27.375 30.2926 28.9339 31.0792 30.4355 31.0792Z" fill="url(#paint0_linear_330_14141)"/>
<defs>
<linearGradient id="paint0_linear_330_14141" x1="-8279.66" y1="14960.1" x2="-3713.01" y2="19749.3" gradientUnits="userSpaceOnUse">
<stop stop-color="#0073FF"/>
<stop offset="1" stop-color="#FF00FF"/>
</linearGradient>
</defs>
</svg>
