<svg width="25" height="25" viewBox="0 0 25 25" fill="none" xmlns="http://www.w3.org/2000/svg">
<path d="M22.39 15.374C21.1157 19.4311 17.3254 22.374 12.8478 22.374C8.3701 22.374 4.57981 19.4311 3.30554 15.374H22.39Z" fill="#1EB53A"/>
<path d="M22.39 9.37402H3.30554C4.57981 5.31691 8.3701 2.37402 12.8478 2.37402C17.3254 2.37402 21.1157 5.31691 22.39 9.37402Z" fill="#0099B5"/>
<path d="M22.0157 8.37402C22.1575 8.69873 22.2827 9.03242 22.39 9.37402H3.30554C3.41283 9.03242 3.53796 8.69873 3.67983 8.37402H22.0157Z" fill="#CE1126"/>
<path d="M22.0157 16.374C22.1575 16.0493 22.2827 15.7156 22.39 15.374H3.30554C3.41283 15.7156 3.53796 16.0493 3.67983 16.374H22.0157Z" fill="#CE1126"/>
<path d="M22.2182 15.874C22.6253 14.7847 22.8478 13.6053 22.8478 12.374C22.8478 11.1427 22.6253 9.96336 22.2182 8.87402H3.47739C3.07033 9.96336 2.84778 11.1427 2.84778 12.374C2.84778 13.6053 3.07033 14.7847 3.47739 15.874H22.2182Z" fill="#F7F9FC"/>
</svg>
