<svg width="121" height="120" viewBox="0 0 121 120" fill="none" xmlns="http://www.w3.org/2000/svg">
<path d="M36.75 82.5H87.8965C89.6719 82.5 91.3897 81.8702 92.7443 80.7227C94.099 79.5752 95.0026 77.9843 95.2945 76.233L103 30H25.5L36.75 82.5Z" fill="#9FFFED"/>
<path d="M48.806 64.5952L41.393 30H25.5L36.75 82.5H87.896C89.6714 82.5 91.3892 81.8702 92.7439 80.7227C94.0985 79.5752 95.0022 77.9843 95.2941 76.233L95.9163 72.5002H58.5841C56.2958 72.5002 54.0768 71.7153 52.2972 70.2767C50.5177 68.8381 49.2854 66.8327 48.806 64.5952Z" fill="#53C4AF"/>
<path d="M87.9999 94.9998H39.2499C38.6811 94.9999 38.1293 94.806 37.6857 94.4501C37.242 94.0941 36.9331 93.5975 36.8098 93.0423L22.68 29.458C22.5589 28.9013 22.2504 28.4031 21.806 28.0467C21.3615 27.6903 20.8082 27.4973 20.2385 27.5H12.9999C12.6695 27.5032 12.3418 27.4409 12.0357 27.3167C11.7296 27.1925 11.4511 27.0089 11.2164 26.7764C10.9817 26.544 10.7954 26.2673 10.6682 25.9624C10.5411 25.6575 10.4756 25.3304 10.4756 25.0001C10.4756 24.6697 10.5411 24.3426 10.6682 24.0378C10.7954 23.7329 10.9817 23.4562 11.2164 23.2237C11.4511 22.9913 11.7296 22.8076 12.0357 22.6834C12.3418 22.5592 12.6695 22.4969 12.9999 22.5001H20.2388C21.9473 22.492 23.6067 23.0708 24.9395 24.1397C26.2723 25.2087 27.1976 26.7029 27.5607 28.3724L41.2557 89.9999H87.9999C88.3302 89.9967 88.6579 90.059 88.964 90.1832C89.2701 90.3074 89.5486 90.491 89.7833 90.7235C90.018 90.9559 90.2044 91.2326 90.3315 91.5375C90.4587 91.8424 90.5242 92.1695 90.5242 92.4998C90.5242 92.8302 90.4587 93.1573 90.3315 93.4622C90.2044 93.7671 90.018 94.0437 89.7833 94.2762C89.5486 94.5087 89.2701 94.6923 88.964 94.8165C88.6579 94.9407 88.3302 95.003 87.9999 94.9998Z" fill="#53C4AF"/>
<path d="M39.2501 110C44.773 110 49.2502 105.523 49.2502 100C49.2502 94.4772 44.773 90 39.2501 90C33.7272 90 29.25 94.4772 29.25 100C29.25 105.523 33.7272 110 39.2501 110Z" fill="#2D4A60"/>
<path d="M39.2501 104.375C41.6664 104.375 43.6252 102.416 43.6252 100C43.6252 97.5838 41.6664 95.625 39.2501 95.625C36.8338 95.625 34.875 97.5838 34.875 100C34.875 102.416 36.8338 104.375 39.2501 104.375Z" fill="#D9E1E2"/>
<path d="M88.0001 110C93.523 110 98.0002 105.523 98.0002 100C98.0002 94.4772 93.523 90 88.0001 90C82.4772 90 78 94.4772 78 100C78 105.523 82.4772 110 88.0001 110Z" fill="#2D4A60"/>
<path d="M88.0001 104.375C90.4164 104.375 92.3752 102.416 92.3752 100C92.3752 97.5838 90.4164 95.625 88.0001 95.625C85.5838 95.625 83.625 97.5838 83.625 100C83.625 102.416 85.5838 104.375 88.0001 104.375Z" fill="#D9E1E2"/>
<path d="M90.4999 49.9998C101.546 49.9998 110.5 41.0456 110.5 29.9999C110.5 18.9543 101.546 10 90.4999 10C79.4543 10 70.5 18.9543 70.5 29.9999C70.5 41.0456 79.4543 49.9998 90.4999 49.9998Z" fill="#53C4AF"/>
<path d="M95.5003 45.0002C91.8468 45.0027 88.2625 44.0036 85.137 42.1116C82.0115 40.2197 79.4643 37.5072 77.7724 34.269C76.0805 31.0308 75.3086 27.3908 75.5406 23.7446C75.7725 20.0984 76.9994 16.5856 79.088 13.5879C76.6849 15.2569 74.6774 17.433 73.2072 19.9626C71.7371 22.4922 70.84 25.3136 70.5794 28.2278C70.3189 31.142 70.7011 34.0778 71.6992 36.8281C72.6972 39.5785 74.2868 42.0762 76.3556 44.145C78.4245 46.2139 80.9222 47.8034 83.6726 48.8014C86.4229 49.7995 89.3587 50.1817 92.2729 49.9211C95.1871 49.6605 98.0085 48.7634 100.538 47.2932C103.068 45.823 105.244 43.8155 106.913 41.4124C103.567 43.751 99.5825 45.0036 95.5003 45.0002Z" fill="#35A691"/>
<path d="M99.2501 27.5001H93.0003V21.2503C92.9939 20.5914 92.7277 19.9618 92.2596 19.4981C91.7914 19.0345 91.1592 18.7744 90.5003 18.7744C89.8415 18.7744 89.2092 19.0345 88.7411 19.4981C88.2729 19.9618 88.0067 20.5914 88.0004 21.2503V27.5004H81.7503C81.0914 27.5067 80.4618 27.7729 79.9981 28.2411C79.5345 28.7092 79.2744 29.3415 79.2744 30.0003C79.2744 30.6592 79.5345 31.2914 79.9981 31.7596C80.4618 32.2277 81.0914 32.4939 81.7503 32.5003H88.0004V38.7504C87.9972 39.0807 88.0595 39.4084 88.1837 39.7145C88.3079 40.0206 88.4915 40.2991 88.724 40.5338C88.9564 40.7685 89.2331 40.9549 89.538 41.082C89.8429 41.2092 90.17 41.2746 90.5003 41.2746C90.8307 41.2746 91.1578 41.2092 91.4627 41.082C91.7675 40.9549 92.0442 40.7685 92.2767 40.5338C92.5091 40.2991 92.6928 40.0206 92.817 39.7145C92.9412 39.4084 93.0035 39.0807 93.0003 38.7504V32.5003H99.2504C99.5807 32.5035 99.9084 32.4412 100.215 32.317C100.521 32.1928 100.799 32.0091 101.034 31.7767C101.269 31.5442 101.455 31.2676 101.582 30.9627C101.709 30.6578 101.775 30.3307 101.775 30.0003C101.775 29.67 101.709 29.3429 101.582 29.038C101.455 28.7331 101.269 28.4564 101.034 28.224C100.799 27.9915 100.521 27.8079 100.215 27.6837C99.9084 27.5595 99.5807 27.4972 99.2504 27.5004L99.2501 27.5001Z" fill="white"/>
</svg>
