<svg width="99" height="48" viewBox="0 0 99 48" fill="none" xmlns="http://www.w3.org/2000/svg">
<rect width="98.3333" height="48" rx="8" fill="#F1F1F1"/>
<path fill-rule="evenodd" clip-rule="evenodd" d="M28.1694 17.7331C28.2718 18.1768 28.323 18.6205 28.323 19.0728C28.3059 20.6429 27.7968 21.8262 26.7955 22.6227C25.7943 23.4191 24.3408 23.8174 22.435 23.8174H21.044C20.5491 23.86 20.1822 24.2952 20.2334 24.7816V26.3006C18.8851 25.5667 17.8184 24.4318 17.1699 23.0408C17.1699 23.0323 17.1699 15.4461 17.1699 15.4461C17.1699 15.4404 17.1727 15.4319 17.1784 15.4205C17.2125 14.9768 17.6136 14.6525 18.0573 14.6952H22.708C23.2485 14.6895 23.7861 14.7122 24.3209 14.7634C24.7731 14.8146 25.2254 14.9085 25.6606 15.0536C26.0617 15.173 26.4457 15.3608 26.7955 15.5997C27.1369 15.8557 27.427 16.1715 27.6574 16.5299C27.8878 16.9053 28.0585 17.3064 28.1694 17.7331ZM24.9267 20.4125C25.1315 20.0456 25.2339 19.6275 25.2254 19.2093C25.251 18.8083 25.1657 18.3987 24.9865 18.0403C24.8329 17.7672 24.5939 17.5539 24.3038 17.4259C23.9966 17.2808 23.6552 17.1955 23.3139 17.1784C22.9271 17.1556 22.5175 17.1443 22.0851 17.1443H20.7454C20.7169 17.1386 20.6885 17.1386 20.66 17.1443C20.404 17.1613 20.2078 17.3832 20.2248 17.6392V20.7539C20.2248 21.1379 20.4211 21.3939 20.7454 21.3939H22.0851C22.4719 21.3996 22.856 21.3768 23.2371 21.3256C23.5784 21.3 23.9198 21.2147 24.2355 21.0611C24.5257 20.916 24.7646 20.6942 24.9267 20.4125ZM20.2334 28.4851C20.2334 28.4851 20.3016 29.0739 19.7384 29.0739H17.6392C17.6335 29.0739 17.625 29.0739 17.6136 29.0739C17.332 29.0313 17.1357 28.7753 17.1699 28.4851V24.8328C18.0403 25.6862 19.0899 26.3433 20.2334 26.7614V28.4851ZM49.5456 19.2093C49.4858 19.4056 48.1461 23.1262 47.1306 25.9166C46.1322 27.9305 44.1269 29.7993 42.4031 30.3113C42.4941 30.2089 42.5738 30.1008 42.642 29.987C42.8127 29.7139 42.9322 29.4067 42.9919 29.091C42.9407 28.7667 42.8383 28.451 42.7018 28.1609C41.8058 25.763 39.5188 19.4995 39.442 19.3203C39.3652 19.1411 39.3652 18.6717 39.9626 18.6717H41.6266C42.0276 18.6803 42.369 18.9619 42.4458 19.3459C42.5908 19.7555 44.4511 25.0462 44.4511 25.0462L46.5589 19.2435C46.6442 18.8936 46.9599 18.6547 47.3183 18.6803H49.1359C49.6053 18.6803 49.6053 18.9192 49.5456 19.2093ZM46.2773 28.3145L46.0042 29.0569C45.7766 29.6827 45.532 30.2515 45.2703 30.7635C45.0314 31.25 44.7327 31.7022 44.3828 32.1033C44.0671 32.4788 43.6831 32.7774 43.2479 32.9993C42.7786 33.2126 42.258 33.3236 41.7375 33.3065C41.2938 33.315 40.8586 33.2638 40.4234 33.17C40.2868 33.1358 40.0308 33.0932 40.0308 32.5641V31.1646C40.0308 30.8404 40.3892 30.8148 40.5855 30.8404C40.7391 30.8574 40.8927 30.8688 41.0463 30.8745C43.3588 31.0964 45.7397 28.8521 46.2773 28.3145ZM38.546 21.2147C38.6029 21.5902 38.6285 21.9685 38.6228 22.3496V28.4425C38.6228 28.7923 38.5289 29.0739 38.1279 29.0739H36.1567C35.7897 29.0739 35.6873 28.7838 35.6873 28.4681V28.1438C35.2009 28.5022 34.6719 28.8009 34.1086 29.0313C33.4772 29.2275 32.8201 29.3214 32.1545 29.3043C31.6596 29.3129 31.1646 29.2531 30.6953 29.1251C30.2686 28.9971 29.8761 28.7923 29.5348 28.5193C29.2105 28.2718 28.9545 27.9561 28.7667 27.5891C28.579 27.171 28.4851 26.7102 28.4937 26.2494C28.4595 25.0376 29.0739 23.9112 30.1065 23.2798C31.1305 22.691 32.9566 22.4947 34.6548 22.5544C35.3716 22.5544 35.5508 22.179 35.5508 21.5987C35.5337 21.1806 35.3545 20.7795 35.0388 20.4893C34.6377 20.2248 34.1513 20.1053 33.6734 20.1565C33.1529 20.1139 32.6324 20.2504 32.1972 20.532C32.018 20.6686 31.8729 20.8563 31.7961 21.0782C31.6254 21.4792 31.6254 21.6243 31.1561 21.6243H29.4494C29.4267 21.6186 29.4039 21.6129 29.3812 21.6072C29.1251 21.5475 28.9801 21.2915 29.0398 21.044C29.4267 19.2975 31.0053 18.4243 33.7758 18.4243C34.1911 18.4243 34.5666 18.4413 34.9023 18.4755C35.2151 18.4982 35.5252 18.5437 35.8324 18.612C36.0998 18.6689 36.3615 18.7457 36.6175 18.8424C36.8678 18.9505 37.1067 19.0813 37.3343 19.2349C37.5476 19.3629 37.7353 19.5251 37.906 19.7043C38.0681 19.892 38.2047 20.1139 38.3071 20.3443C38.418 20.6259 38.5033 20.916 38.546 21.2147ZM35.6191 25.14C35.6191 25.0945 35.6162 25.0519 35.6105 25.012C35.5423 24.5512 35.1156 24.2355 34.6548 24.3038C33.8697 24.2782 33.0846 24.4062 32.3508 24.6878C31.8473 24.9267 31.5401 25.4472 31.5828 26.0019C31.5486 26.4115 31.7193 26.8126 32.0436 27.0601C32.4105 27.299 32.8372 27.4185 33.2724 27.4014C35.09 27.4014 35.602 26.3347 35.602 26.3347L35.6191 25.14Z" fill="#333333"/>
<path d="M80.8207 22.4099C81.2815 23.1609 81.2815 24.1081 80.8207 24.8675C80.3513 25.5673 77.8169 28.2809 76.9806 29.1513C76.2553 29.9022 75.274 30.6617 74.3012 30.6617H54.1624C51.4317 30.6617 51.2695 29.7316 51.2695 27.658V19.1928C51.2695 17.068 51.901 16.4536 53.7613 16.4536H74.3438C75.3081 16.4536 76.17 16.9485 77.1342 17.9384C77.9876 18.7918 80.4793 21.9065 80.8207 22.4099Z" fill="#33CCCC"/>
<path d="M55.8439 19.7216V19.6704C55.8439 19.3973 55.8439 19.1328 55.3746 19.1328H53.6935C53.2925 19.1328 53.2754 19.3461 53.2754 19.6789V21.9147C53.941 20.9846 54.8199 20.2336 55.8439 19.7216Z" fill="white"/>
<path d="M67.1502 27.8024V27.6744V22.2899C67.1502 20.0371 66.1547 18.9106 64.1635 18.9106C63.6089 18.9106 63.0713 19.0728 62.6019 19.3714C62.0899 19.6957 61.6291 20.0968 61.2366 20.5661C61.0659 20.0627 60.7246 19.6274 60.2723 19.3373C59.7603 19.0557 59.18 18.9192 58.5912 18.9448C57.7294 18.9448 56.8931 19.2349 56.2189 19.764C56.0653 19.9091 53.2749 22.0936 53.2749 24.3635V27.811C53.2749 27.9134 53.2152 28.3315 53.6845 28.3315H55.4424C55.98 28.3315 55.9288 27.9731 55.9288 27.828V22.2472C56.2275 21.8461 56.8248 20.9075 57.8147 20.9075C58.139 20.8733 58.4547 21.0184 58.6339 21.2915C58.8302 21.684 58.924 22.1277 58.8899 22.5715V26.9235V27.8195C58.8899 27.9219 58.8302 28.34 59.2995 28.34H61.0318C61.5779 28.34 61.5267 27.9816 61.5267 27.8366V27.7171V22.2216C61.8424 21.8291 62.4569 20.8819 63.4126 20.8819C63.7369 20.8563 64.0526 21.0013 64.2489 21.2744C64.4451 21.6669 64.539 22.1107 64.5049 22.5544V26.9064V27.8024C64.5049 27.9048 64.4451 28.323 64.9145 28.323H66.6723C67.2185 28.2974 67.1502 27.939 67.1502 27.8024Z" fill="white"/>
<path fill-rule="evenodd" clip-rule="evenodd" d="M76.8184 25.6263C76.8184 25.6206 76.8184 25.6178 76.8184 25.6178C76.8241 25.6121 76.827 25.6092 76.827 25.6092L76.8184 25.6263ZM72.8504 28.2119C70.1709 28.2119 68.3789 26.3943 68.3789 23.6551C68.3789 20.9244 70.2392 19.0044 72.7565 19.0044C75.2654 19.0044 76.9464 20.7452 77.0488 23.5527C77.0488 23.9111 76.9635 24.2268 76.5112 24.2268H70.828C70.8621 25.7287 71.5789 26.5479 72.8675 26.5479C73.5672 26.565 74.2072 26.181 74.5144 25.558C74.6339 25.3788 74.8387 25.2764 75.052 25.2764H76.5112C76.6734 25.2764 76.8099 25.3959 76.8184 25.558C76.8184 25.5751 76.8184 25.5922 76.8184 25.6092C76.204 27.2562 74.5997 28.3058 72.8504 28.2119ZM72.7651 20.7367C71.6984 20.7367 70.9816 21.4791 70.8195 22.6994H74.6339C74.54 21.6327 73.9597 20.7367 72.7651 20.7367Z" fill="white"/>
</svg>
